PathFileType	4	(X/Y/Z)	46_2_96_p1_0-399_filt_butterworth.trc
DataRate	CameraRate	NumFrames	NumMarkers	Units	OrigDataRate	OrigDataStartFrame	OrigNumFrames
60.0	60.0	7	27	m	60.0	199	399
Frame#	Time	RHip			RKnee			RAnkle			RBigToe			RSmallToe			RHeel			LHip			LKnee			LAnkle			LBigToe			LSmallToe			LHeel			Neck			Head			Nose			RShoulder			RElbow			RWrist			RThumb			RIndex			RPinky			LShoulder			LElbow			LWrist			LThumb			LIndex			LPinky			
		X1	Y1	Z1	X2	Y2	Z2	X3	Y3	Z3	X4	Y4	Z4	X5	Y5	Z5	X6	Y6	Z6	X7	Y7	Z7	X8	Y8	Z8	X9	Y9	Z9	X10	Y10	Z10	X11	Y11	Z11	X12	Y12	Z12	X13	Y13	Z13	X14	Y14	Z14	X15	Y15	Z15	X16	Y16	Z16	X17	Y17	Z17	X18	Y18	Z18	X19	Y19	Z19	X20	Y20	Z20	X21	Y21	Z21	X22	Y22	Z22	X23	Y23	Z23	X24	Y24	Z24	X25	Y25	Z25	X26	Y26	Z26	X27	Y27	Z27	
199	3.316666666666667	0.4098537819448481	0.4265441657759846	0.6466775900383419	0.3986903995748095	0.45922473741145164	1.1097812136253369	0.34665290382727576	0.47779034434883777	1.5219561868138973	0.36474413619776724	0.3491558617891114	1.5212988362355282	0.4079512618295677	0.3713227005927486	1.5257837775536152	0.31038322345178787	0.5775416661212173	1.6091456375040298	0.23026805667506292	0.3552638380794057	0.6251303028344515	0.20883269772050417	0.3686163171719544	1.072421676568593	0.13562210022873714	0.5170378525829117	1.535695693407972	0.20132464288142668	0.3099965343439718	1.4908076478737837	0.14806670200738692	0.34224337498423707	1.5028488964579805	0.10759733545086615	0.599464968520005	1.6025830350149535	0.4377029466328385	0.4084772261673131	0.17456491409810238	0.5724552075915965	0.3228458679642326	-0.017692280713207813	0.529597965963625	0.3696809725073783	0.1412242947901152	0.5335105665204103	0.5039558628114063	0.2649131863985181	0.5214367104642046	0.43612456286879503	0.4983187905269921	0.5382449766527346	0.31024699353175783	0.34866104823272076	0.5241437814921855	0.2951606550094627	0.23692882918384287	0.5854587497191155	0.2761536384457827	0.22795950773431828	0.5902106936668913	0.2499048793843105	0.2966186008450744	0.32232079750897846	0.3541248199133774	0.17413925101526487	0.2185889373474867	0.24108989510540751	0.38037532731988577	0.41628642030978724	0.2224810220051202	0.28744394596066525	0.4687913444981091	0.25623053422483333	0.2239904861247652	0.4867687492502477	0.23615982870547686	0.20300536759514443	0.48526389890470606	0.15059883889511527	0.2249570639167228
200	3.333333333333333	0.4052052728259945	0.4387512043422011	0.6494830335991719	0.39591512944197566	0.4592453399048511	1.1091279116214434	0.346800175430828	0.47745539879692545	1.5216096269916917	0.3648049245798516	0.34988724149481415	1.5222824981089134	0.4077388116579293	0.3718479283164952	1.526000660183462	0.3102153856700864	0.5773645300334619	1.607810080018092	0.23017880186362785	0.3546151393069622	0.624881061064471	0.20650079227226423	0.37184806445072993	1.0738022415083115	0.1358502773817959	0.5165628581819061	1.536633164169669	0.20109415892207033	0.3100021925376472	1.4905483149338268	0.1480565166529769	0.3423591230821568	1.5029100357889162	0.10768417169936326	0.5991284492605333	1.6034362661618953	0.4347722379858262	0.408118554792948	0.1739291372531069	0.574438788935351	0.3199030647459109	-0.015087323035703945	0.5313094462289302	0.3699269791045742	0.14610379746220314	0.5287556271427022	0.5139079187351271	0.2648518762517323	0.5185944945506145	0.4377192823192084	0.499584090680933	0.5364573637917854	0.310440365773721	0.34903864552302144	0.521395802646539	0.2882951382834248	0.23691610444215833	0.5850983597531023	0.27742229455359135	0.2281990244123821	0.5892533098364067	0.2483484080506944	0.2963696321461414	0.32247753187440953	0.3537314473326756	0.17301789862452752	0.21806000438474377	0.24516673729732882	0.3800287532176509	0.4144344276640213	0.22668390988156606	0.2870423772480289	0.4699492664197946	0.25630797109160985	0.22231870584409857	0.4870562709396759	0.23802038010725787	0.20088363898471048	0.4857013985679851	0.1514572079221147	0.2260728681210214
201	3.35	0.4001553225952893	0.45197016144754804	0.6527714067013038	0.39472268419212037	0.459263082482485	1.1089110746041881	0.34691066094135364	0.4772212683222107	1.5213121122508133	0.36479016404571585	0.3501546482316994	1.5224569060903945	0.40756387983138875	0.3724517921902947	1.526292750713513	0.31003599249561553	0.5771397976621632	1.6069576058053086	0.23009433520869568	0.35394544896630875	0.623855799559178	0.2044659135392614	0.3738062235434242	1.0740460918843246	0.13595965659284123	0.5164118070373654	1.5370805105486194	0.20022894504545866	0.3100080209065144	1.4902294144098958	0.14799831166096816	0.34254673481137016	1.5030911993701763	0.10763259362626225	0.5988725348256063	1.603822562451458	0.43166265561390316	0.40791365493243814	0.17316948049946046	0.5755423369977343	0.31737088271021535	-0.013495695928560075	0.5329339509020041	0.3681375542568679	0.148561812286816	0.5240234922410644	0.5232388023172375	0.26394635461755184	0.5164824024422459	0.43793161636707384	0.4993070337910151	0.5329845050902056	0.3091893338478962	0.34840838469202595	0.5186906690566633	0.2839084538269123	0.23664328899414266	0.5832985826810637	0.2781338860911297	0.22816645583633002	0.5874120737468144	0.2487169440583127	0.2954674517534867	0.3225884963296755	0.3537554086844986	0.1711756700727795	0.2173374215492377	0.24771127290754755	0.37943838673601277	0.41294650454012777	0.2295636255912974	0.2868396408825521	0.47116980520350044	0.2556093326369587	0.22054534826797417	0.48626941730392814	0.23869655945877974	0.1961662292368624	0.48550451120246957	0.1515100680127672	0.22425932114719027
202	3.3666666666666667	0.39643995593044173	0.46034336265777254	0.655164437332116	0.3943169348616254	0.4593131247700159	1.1093713852500682	0.34693260557563144	0.47713447798797354	1.5212212828815581	0.3647251700861911	0.3501396161984137	1.522251743774009	0.4075115037004742	0.3725154163341725	1.5263184308100963	0.3097085821162819	0.5756070398113876	1.60594946331686	0.2294263487323587	0.3549489060419246	0.6230069532776298	0.20183980420222042	0.3767419097704948	1.0747346807696172	0.13607628105464398	0.5166101068284048	1.5377436825064015	0.19867181344730928	0.3100570389656864	1.4904312357241043	0.1478547126263409	0.34274586695434994	1.503344242916755	0.10766254554159058	0.5986899444830512	1.6041350846872042	0.42973766307382405	0.40789227480533535	0.17266811869130205	0.5758370162721028	0.31172696656017923	-0.013468447373099783	0.5337450144214599	0.36303706412475545	0.14755738341093624	0.5208289093653793	0.527098067202188	0.2634236730670602	0.5143596654305096	0.43789676152821655	0.4979129722348528	0.5282516355185825	0.30505273035448643	0.34629177455466953	0.5175480710764102	0.2801507117305354	0.2360462133490524	0.5809345986701463	0.2761185749306247	0.22786356589968484	0.5850129517858598	0.25219646278818325	0.2949722708582548	0.3221938667016465	0.3552004587364479	0.1698473997503002	0.2156663535792288	0.24805597447614866	0.37919097664603774	0.41168719313731883	0.2295635722311652	0.2867211404534873	0.4716941880366292	0.2530477300827343	0.21967951468064545	0.48491575794542535	0.23432889184414568	0.19111139673803285	0.48343821240057083	0.14931342306783457	0.2194456821377814
203	3.3833333333333333	0.3941980758269995	0.4628004143075597	0.6565534604104489	0.39340834898120314	0.4594412165780186	1.1102356145584513	0.3468750185251506	0.4771031176398517	1.5214076321736503	0.36464563723104937	0.35004028743108073	1.521985776636171	0.40766236913213816	0.3706903408048965	1.5252848356480722	0.3090397679490012	0.5716963177767003	1.6039077572587561	0.22780722879170395	0.35825712620813954	0.623616700787589	0.19786647413570005	0.3819262108446775	1.0770810176370502	0.136298245811205	0.5171421406752539	1.5393002092989398	0.1969486874861756	0.31021962862925045	1.4918318160587805	0.1476138833767534	0.342868749597787	1.50360429462948	0.1083247457595425	0.5986882761861152	1.6047295265683585	0.4291042779563471	0.40801828890331515	0.172513234069994	0.5759741740839613	0.30359691278375517	-0.014575682579231268	0.5336162212925272	0.3569669461462456	0.1440934925639138	0.5194471492364567	0.5248220039499188	0.2645556140295083	0.5123335482839079	0.4379379129633513	0.4969122427820161	0.5234616938090506	0.29811904859415295	0.3442006249816657	0.5172145377233364	0.2761261855657263	0.23571274962009248	0.5790158875475455	0.26999715821867315	0.22739270901492253	0.5826398425226059	0.25586666359026367	0.2955725304183807	0.3208343658088836	0.35867068471907504	0.16953109667820251	0.212014699536511	0.2471650441320608	0.37995727432011256	0.4096576055144423	0.22681402952551674	0.28637987219144795	0.47021649863855436	0.2479883715797909	0.21961085432530122	0.4817235013863277	0.22274314161708364	0.1875535392243489	0.478522622190806	0.14477471838517542	0.21385581913903326
204	3.4	0.3923530492187668	0.4631798506479225	0.6579821695565908	0.391140225973295	0.4596076980927791	1.1108145942984617	0.3467259851840857	0.4771230459923653	1.5218569552703605	0.36457472652243966	0.3499517764814267	1.5217761177623632	0.40805478953918595	0.36592006368118446	1.522548242492585	0.30820408839974306	0.5664743255012931	1.6013079598558477	0.22543838680565745	0.3624830700115349	0.6254917412296375	0.19272352495724823	0.3885315794266429	1.0809210696043425	0.13659001924894656	0.5178192813772353	1.5414530645470141	0.19572889708997634	0.3105212631705084	1.4940721326599185	0.14729239597269597	0.3429166640365598	1.5037360600511567	0.11017401315574682	0.5990386123559279	1.6054656201541917	0.42846364625332245	0.4082620327671231	0.17292906706145622	0.5762381599850158	0.29661381426015315	-0.015861529603849484	0.5330269402491095	0.35231777804333764	0.14051972539299792	0.5191027561467665	0.5198364081860922	0.2669143395680241	0.5106820413465275	0.43794485909136227	0.49746445784188936	0.5190791973939858	0.290935254466986	0.3442368349377216	0.5154037596632624	0.2730777665580452	0.23611428349602354	0.5772631725118743	0.26019930854615225	0.22700810686883596	0.579995351776244	0.25386650878045913	0.29642614704976034	0.3185915851542533	0.3629841705096659	0.1700129776721195	0.20577041690851616	0.2459752057611827	0.38115776095847137	0.40550803680024894	0.22244454610057135	0.28604749122261497	0.4661921268831134	0.24079851240445263	0.2198464735641402	0.47558364560067046	0.20759933124686072	0.18606669265637224	0.4709995896376825	0.1404953259543502	0.2097200573026924
205	3.4166666666666665	0.39022941667876415	0.46540651915015163	0.6598240098237471	0.38777206982643897	0.4596578014735352	1.1107037556295287	0.3464922032916715	0.47731639364867784	1.5221401802743852	0.36452303202233893	0.34989382535974145	1.5216335581409666	0.40855840536998916	0.35954913658002285	1.5188427861707496	0.30773933233451234	0.5629410857503803	1.599994825631515	0.22297022387558654	0.3652981810510161	0.6269322175644294	0.1872939339236662	0.39523664437155	1.0847280525429097	0.1368177030647913	0.5183243393281788	1.5432103826779884	0.1952382846354359	0.3107600645842184	1.4959471848409864	0.1469755444710981	0.34300862641539803	1.5037245240719288	0.11277511547271607	0.5996512736915875	1.6060733168467523	0.4267554546905603	0.4086142755349933	0.1743248127637121	0.5762387292665582	0.29328536519895876	-0.016673716613031762	0.5327978120783874	0.3490138316738699	0.13911765713575966	0.518864623650148	0.516148117988421	0.2689845819027313	0.509220786721355	0.4378640325941051	0.4994991612340111	0.515021659389343	0.2862297893578929	0.34729421587433157	0.5113277871875993	0.2720438211813166	0.23690875695638106	0.5743836953708586	0.24761467145848953	0.2266111546538122	0.5756386229668428	0.2424796521928608	0.296425674489797	0.3160883127123848	0.3656401890446432	0.17078575524845996	0.19815005568104382	0.24482813784841967	0.3805042633817544	0.398194733753796	0.21672701789942037	0.28599686029784877	0.4602895954962112	0.23219633321830474	0.21995867860186735	0.4674592724215891	0.19466821364697146	0.18624904396802267	0.46297996091420657	0.1386928522922191	0.20778607044060177
